<?xml version="1.0" standalone="no"?>
<!DOCTYPE svg PUBLIC "-//W3C//DTD SVG 20010904//EN"
 "http://www.w3.org/TR/2001/REC-SVG-20010904/DTD/svg10.dtd">
<svg version="1.0" xmlns="http://www.w3.org/2000/svg"
 width="137.000000pt" height="137.000000pt" viewBox="0 0 137.000000 137.000000"
 preserveAspectRatio="xMidYMid meet">
<metadata>
Created by potrace 1.14, written by Peter Selinger 2001-2017
</metadata>
<g transform="translate(0.000000,137.000000) scale(0.100000,-0.100000)"
fill="#000000" stroke="none">
<path d="M440 1301 c-134 -44 -221 -157 -222 -289 0 -51 3 -65 35 -131 19 -38
79 -110 100 -119 4 -2 20 -8 37 -13 16 -6 28 -14 26 -18 -3 -4 5 -7 17 -8 103
-2 118 -4 112 -13 -3 -6 1 -7 9 -4 17 7 69 -43 60 -57 -3 -5 -1 -9 3 -9 5 0
10 -16 11 -36 2 -22 -1 -33 -8 -29 -6 3 -7 0 -4 -9 8 -20 -50 -76 -80 -77 -38
-2 -61 2 -84 17 -22 14 -26 12 -84 -46 -57 -57 -59 -62 -44 -79 9 -10 13 -21
9 -26 -5 -4 -2 -5 4 -1 12 7 57 -16 49 -25 -2 -2 12 -5 31 -7 19 -1 42 -6 50
-10 8 -5 34 -6 58 -2 31 5 42 3 38 -4 -4 -6 1 -5 10 2 9 8 22 10 28 6 8 -5 9
-3 4 6 -5 8 -3 11 6 8 8 -3 32 7 54 22 22 15 47 25 55 23 9 -3 11 -1 4 4 -7 5
0 22 22 50 17 23 34 40 37 37 3 -3 5 1 4 8 -1 31 4 49 12 44 5 -4 7 3 4 13 -4
16 1 19 34 19 48 0 93 -16 93 -34 0 -8 4 -14 10 -14 14 0 29 -63 18 -77 -5 -7
-5 -12 2 -15 17 -5 -32 -66 -64 -80 -37 -15 -83 -12 -113 7 -21 14 -25 12 -82
-47 -69 -72 -68 -74 20 -118 50 -26 66 -29 135 -27 66 2 88 7 133 32 29 16 56
35 58 42 3 7 15 13 27 13 15 0 17 3 8 9 -10 6 -10 10 2 20 34 28 60 115 59
196 -1 90 -82 205 -171 243 -26 11 -72 23 -102 27 -63 8 -105 27 -120 54 -16
31 -23 91 -10 91 6 0 8 4 5 10 -9 14 21 55 49 68 19 8 26 8 30 -1 3 -9 5 -9 5
1 1 18 41 15 84 -7 20 -10 35 -16 32 -12 -2 4 21 32 52 61 65 62 64 70 -13
112 -76 42 -133 46 -253 16 -17 -4 -55 -34 -95 -74 -46 -46 -51 -55 -66 -105
l-13 -45 -51 7 c-39 6 -58 16 -79 40 -16 17 -26 37 -23 45 3 7 1 16 -4 19 -14
9 7 65 35 92 30 31 95 38 138 16 28 -14 29 -13 88 47 68 71 68 74 -15 115 -56
27 -162 41 -206 26z"/>
<path d="M445 290 c-3 -6 1 -7 9 -4 18 7 21 14 7 14 -6 0 -13 -4 -16 -10z"/>
<path d="M535 291 c-3 -5 -2 -12 3 -15 5 -3 9 1 9 9 0 17 -3 19 -12 6z"/>
<path d="M1000 150 c-9 -6 -10 -10 -3 -10 6 0 15 5 18 10 8 12 4 12 -15 0z"/>
</g>
</svg>
